# xmcd CD database file
#
# Track frame offsets:
#	150
#	40725
#	74545
#	110363
#	147215
#	180498
#	205895
#	237438
#
# Disc length: 3392 seconds
#
# Revision: 0
# Processed by: cddbd v1.4PL0 Copyright (c) Steve Scherf et al.
# Submitted via: CDex 1.51
#
DISCID=6f0d3e08
DTITLE=Cedar Walton - Manhattan Afternoon
DYEAR=1992
DGENRE=Jazz
TTITLE0=There Is No Greater Love
TTITLE1=St. Thomas
TTITLE2=Skylark
TTITLE3=The Newest Blues
TTITLE4=When Love Is New
TTITLE5=I Mean You
TTITLE6=Afternoon In Paris
TTITLE7=The Theme
EXTD=YEAR: 1992
EXTT0=
EXTT1=
EXTT2=
EXTT3=
EXTT4=
EXTT5=
EXTT6=
EXTT7=
PLAYORDER=
